<svg data-v-423bf9ae="" xmlns="http://www.w3.org/2000/svg" viewBox="0 0 246.02273538010877 60" class="font"><!----><!----><defs data-v-423bf9ae=""><linearGradient data-v-423bf9ae="" gradientTransform="rotate(25)" id="542bf9ed-bf8a-4bd7-933a-a822890edf23" x1="0%" y1="0%" x2="100%" y2="0%"><stop data-v-423bf9ae="" offset="0%" style="stop-color: rgb(8, 199, 214); stop-opacity: 1;"></stop><stop data-v-423bf9ae="" offset="100%" style="stop-color: rgb(2, 2, 62); stop-opacity: 1;"></stop></linearGradient></defs><g data-v-423bf9ae="" id="eb194a09-f657-4dbe-9849-a15a868ba3e4" fill="url(#542bf9ed-bf8a-4bd7-933a-a822890edf23)" transform="matrix(5.68181848526001,0,0,5.68181848526001,-2.1590864658355713,-18.29545783996582)"><path d="M4.10 5.94C2.06 5.94 0.38 7.36 0.38 9.91C0.38 12.49 1.90 13.78 3.93 13.78C5.80 13.78 7.17 12.84 7.49 11.00L5.56 11.00C5.36 11.94 4.80 12.42 4.05 12.42C3.08 12.42 2.38 11.63 2.38 9.79C2.38 8.09 3.08 7.29 4.06 7.29C4.86 7.29 5.42 7.74 5.60 8.82L7.50 8.82C7.36 7.17 6.12 5.94 4.10 5.94ZM15.68 8.02C15.53 6.72 14.62 5.94 13.03 5.94C12.32 5.94 11.77 6.08 11.24 6.45L10.67 7.34L10.67 3.22L8.74 3.22L8.74 13.58L10.67 13.58L10.67 10.18C10.67 8.11 11.41 7.31 12.35 7.29C13.29 7.29 13.72 7.83 13.78 8.61C13.80 8.99 13.80 9.34 13.80 9.65L13.80 13.58L15.74 13.58L15.74 9.38C15.74 8.78 15.72 8.40 15.68 8.02ZM21.41 7.10C20.85 7.10 20.34 7.21 19.89 7.48L19.42 8.13L19.78 5.43L24.22 5.43L24.22 3.92L18.20 3.92L17.51 9.63L19.31 9.63C19.64 8.86 20.13 8.54 20.89 8.54C21.94 8.54 22.55 9.31 22.55 10.44C22.55 11.58 21.92 12.33 20.85 12.33C19.92 12.33 19.43 11.79 19.29 10.93L19.28 10.79L17.35 10.79L17.36 10.93C17.56 12.88 18.79 13.78 20.94 13.78C22.83 13.78 24.61 12.59 24.61 10.37C24.61 8.39 23.44 7.10 21.41 7.10ZM27.01 11.42C26.32 11.42 25.84 11.91 25.84 12.60C25.84 13.29 26.32 13.78 27.01 13.78C27.71 13.78 28.18 13.29 28.18 12.60C28.18 11.91 27.71 11.42 27.01 11.42ZM32.83 5.94C30.79 5.94 29.11 7.36 29.11 9.91C29.11 12.49 30.63 13.78 32.66 13.78C34.52 13.78 35.90 12.84 36.22 11.00L34.29 11.00C34.09 11.94 33.53 12.42 32.77 12.42C31.81 12.42 31.11 11.63 31.11 9.79C31.11 8.09 31.81 7.29 32.79 7.29C33.59 7.29 34.15 7.74 34.33 8.82L36.23 8.82C36.09 7.17 34.85 5.94 32.83 5.94ZM41.79 13.58L43.68 13.58C43.57 12.75 43.54 12.25 43.54 11.69L43.54 9.28C43.54 8.88 43.53 8.48 43.50 8.13C43.39 6.85 42.60 5.94 40.52 5.94C38.74 5.94 37.38 6.89 37.32 8.57L39.20 8.55C39.26 7.74 39.68 7.29 40.45 7.29C41.20 7.29 41.54 7.67 41.59 8.19C41.62 8.44 41.62 8.67 41.62 8.89L41.62 9.04L41.15 9.04C38.44 9.04 37.04 9.97 37.04 11.61C37.04 13.02 38.15 13.78 39.44 13.78C40.14 13.78 40.77 13.64 41.29 13.29L41.65 12.49ZM40.18 12.42C39.49 12.42 39.05 12.11 39.05 11.45C39.05 10.47 40.08 10.12 41.62 10.23L41.62 10.84C41.62 11.87 40.96 12.42 40.18 12.42Z"></path></g><!----><!----></svg>